<?xml version="1.0" encoding="UTF-8" standalone="no"?>
<!-- Created with Inkscape (http://www.inkscape.org/) -->

<svg
   width="1080"
   height="1080"
   viewBox="0 0 285.75 285.75001"
   version="1.1"
   id="svg1"
   xml:space="preserve"
   sodipodi:docname="icon.svg"
   inkscape:version="1.4.2 (f4327f4, 2025-05-13)"
   inkscape:export-filename="icon.svg"
   inkscape:export-xdpi="96"
   inkscape:export-ydpi="96"
   xmlns:inkscape="http://www.inkscape.org/namespaces/inkscape"
   xmlns:sodipodi="http://sodipodi.sourceforge.net/DTD/sodipodi-0.dtd"
   xmlns="http://www.w3.org/2000/svg"
   xmlns:svg="http://www.w3.org/2000/svg"><sodipodi:namedview
     id="namedview1"
     pagecolor="#505050"
     bordercolor="#ffffff"
     borderopacity="1"
     inkscape:showpageshadow="0"
     inkscape:pageopacity="0"
     inkscape:pagecheckerboard="1"
     inkscape:deskcolor="#505050"
     inkscape:zoom="0.79166667"
     inkscape:cx="538.73684"
     inkscape:cy="540"
     inkscape:window-width="1920"
     inkscape:window-height="1057"
     inkscape:window-x="-8"
     inkscape:window-y="-8"
     inkscape:window-maximized="1"
     inkscape:current-layer="svg1" /><defs
     id="defs1" /><g
     id="layer1"
     transform="matrix(1.5039474,0,0,1.5039474,-72.189475,-72.189465)"><path
       style="display:inline;fill:#00ffff;fill-opacity:1;stroke-width:0.264583"
       d="M 47.999999,207.99999 123,77.999996 h 32 l -31,52.999994 h 13 l 25,24 h -52 l -30.000002,53 z"
       id="path1" /><path
       style="display:inline;fill:#0000ff;fill-opacity:1;stroke-width:0.264583"
       d="M 238,77.999996 H 200 C 155,79.999997 137,107 133,126 h 6 l 23,22.99349 c -2.08927,-31.6097 17.02654,-40.08743 44,-39.9935 z"
       id="path2" /><path
       style="display:inline;fill:#0000ff;fill-opacity:1;stroke-width:0.264583"
       d="m 133,159.99999 c 6.64661,28.44037 30.66667,45.33334 67,48 h 38 l -32,-31 c -12,0 -31,-0.55442 -40,-17 z"
       id="path3" /><path
       style="fill:#00f093;fill-opacity:1;stroke-width:0.264583"
       d="m 175,131.99999 c 4,-6.62998 14,-13.50004 25,-13.21038 18,0.21039 30,14.21039 30.42995,28.8687 0.0392,1.61437 -0.24024,2.53185 -1.42995,2.53185 -0.32939,0 -1.37207,-0.19844 -1.37207,-1.80025 C 227.57783,138.32809 219.40834,121 199,120.31863 189.66667,120 181.66667,123.89378 175,131.99999 Z"
       id="path4" /><path
       style="fill:#00f093;fill-opacity:1;stroke-width:0.264583"
       d="m 195,126.36086 c 14.96641,-3.08462 28.59025,7.63914 28.8399,22.9359 -0.28167,8.46321 -3.52138,13.19519 -7.44847,17.06014 -0.39143,0.29995 -1.39143,-0.009 -1.70719,-0.35691 -0.40333,-0.41861 -0.52002,-1.33333 0.0468,-2 4.36711,-4.52198 6.54639,-9.85658 6.5481,-16 C 220.64921,134 209,124.6492 195,126.36086 Z"
       id="path5" /><path
       style="fill:#00f093;fill-opacity:1;stroke-width:0.264583"
       d="m 208.78932,135.21862 c 4.49131,2.78138 7.8797,7.78137 7.89443,14.3003 0.0508,10.89134 -9.14869,17.11337 -16.68375,17.48107 -1.18205,0 -2,-0.66268 -2,-1.57853 0,-0.99519 0.83724,-1.52185 2,-1.55517 8,-0.17938 15.24762,-7.27177 15.39564,-15.76991 -0.27569,-6.60407 -3.40138,-9.78846 -6.60632,-12.87776 z"
       id="path6" /><path
       style="fill:#00f093;fill-opacity:1;stroke-width:0.264583"
       d="M 209.41995,146.95815 C 211,154.61966 204.34641,159.69377 199,159.99999 c -3.52619,1e-5 -6.34682,-1.33333 -8.46189,-4 -0.25471,-0.40368 -0.0138,-1 0.52619,-1.46475 0.51839,-0.45408 1.2648,-0.47552 1.57856,-0.22217 1.83416,1.90581 4.21954,2.97377 7.15614,3.20389 6.39435,-0.85172 9.60133,-4.37132 9.62095,-10.55881 z"
       id="path7" /></g></svg>
